<?xml version="1.0" encoding="utf-8"?>
<!-- Generator: Adobe Illustrator 17.0.0, SVG Export Plug-In . SVG Version: 6.00 Build 0)  -->
<!DOCTYPE svg PUBLIC "-//W3C//DTD SVG 1.1//EN" "http://www.w3.org/Graphics/SVG/1.1/DTD/svg11.dtd">
<svg version="1.1" id="Слой_1" xmlns="http://www.w3.org/2000/svg" xmlns:xlink="http://www.w3.org/1999/xlink" x="0px" y="0px"
	 width="25px" height="25px" viewBox="1237.5 1237.5 25 25" enable-background="new 1237.5 1237.5 25 25" xml:space="preserve">
<path fill="#F7931A" d="M1262.125,1253.024c-1.669,6.697-8.452,10.771-15.15,9.102c-6.694-1.669-10.769-8.452-9.099-15.148
	c1.669-6.697,8.451-10.773,15.146-9.104C1259.719,1239.544,1263.794,1246.327,1262.125,1253.024L1262.125,1253.024z"/>
<path fill="#FFFFFF" d="M1255.948,1248.449c0.248-1.663-1.018-2.557-2.75-3.154l0.562-2.253l-1.372-0.342l-0.547,2.194
	c-0.36-0.09-0.73-0.175-1.099-0.259l0.551-2.208l-1.371-0.342l-0.562,2.252c-0.298-0.068-0.591-0.135-0.876-0.206l0.002-0.007
	l-1.891-0.472l-0.365,1.465c0,0,1.018,0.233,0.996,0.248c0.555,0.139,0.656,0.506,0.639,0.798l-0.64,2.567
	c0.038,0.01,0.088,0.024,0.143,0.046l-0.145-0.036l-0.897,3.596c-0.068,0.169-0.24,0.422-0.628,0.326
	c0.014,0.02-0.997-0.249-0.997-0.249l-0.681,1.57l1.785,0.445c0.332,0.083,0.657,0.17,0.977,0.252l-0.568,2.279l1.37,0.342
	l0.563-2.255c0.374,0.102,0.737,0.195,1.093,0.284l-0.56,2.244l1.371,0.342l0.568-2.275c2.339,0.443,4.098,0.264,4.837-1.851
	c0.597-1.703-0.029-2.686-1.26-3.327C1255.093,1250.256,1255.768,1249.666,1255.948,1248.449L1255.948,1248.449z M1252.814,1252.843
	c-0.424,1.703-3.291,0.783-4.222,0.552l0.753-3.019C1250.276,1250.607,1253.256,1251.067,1252.814,1252.843L1252.814,1252.843z
	 M1253.238,1248.424c-0.387,1.549-2.773,0.762-3.548,0.569l0.683-2.738C1251.147,1246.448,1253.641,1246.808,1253.238,1248.424z"/>
</svg>
