<?xml version="1.0" encoding="utf-8"?>
<!-- Generator: Adobe Illustrator 17.0.0, SVG Export Plug-In . SVG Version: 6.00 Build 0)  -->
<!DOCTYPE svg PUBLIC "-//W3C//DTD SVG 1.1//EN" "http://www.w3.org/Graphics/SVG/1.1/DTD/svg11.dtd">
<svg version="1.1" id="Слой_1" xmlns="http://www.w3.org/2000/svg" xmlns:xlink="http://www.w3.org/1999/xlink" x="0px" y="0px"
	 width="25px" height="25px" viewBox="1237.5 1237.5 25 25" enable-background="new 1237.5 1237.5 25 25" xml:space="preserve">
<g>
	<g>
		<defs>
			<rect id="SVGID_1_" x="1237.5" y="1237.5" width="25" height="25"/>
		</defs>
		<clipPath id="SVGID_2_">
			<use xlink:href="#SVGID_1_"  overflow="visible"/>
		</clipPath>
		<path clip-path="url(#SVGID_2_)" d="M1250.001,1262.542c-1.688,0-3.324-0.331-4.865-0.982c-1.49-0.63-2.825-1.53-3.973-2.678
			c-1.148-1.148-2.049-2.486-2.678-3.973c-0.654-1.544-0.985-3.18-0.985-4.868c0-1.688,0.331-3.324,0.982-4.865
			c0.63-1.49,1.53-2.825,2.678-3.973c1.148-1.148,2.486-2.049,3.973-2.678c1.541-0.651,3.18-0.982,4.865-0.982
			c1.685,0,3.327,0.328,4.868,0.98c1.49,0.63,2.825,1.53,3.973,2.678c1.148,1.148,2.049,2.486,2.678,3.973
			c0.651,1.541,0.982,3.18,0.982,4.865c0,1.688-0.331,3.324-0.982,4.865c-0.63,1.49-1.53,2.825-2.678,3.973
			c-1.148,1.148-2.486,2.049-3.973,2.678C1253.326,1262.211,1251.689,1262.542,1250.001,1262.542z"/>
	</g>
	<g>
		<defs>
			<rect id="SVGID_3_" x="1237.5" y="1237.5" width="25" height="25"/>
		</defs>
		<clipPath id="SVGID_4_">
			<use xlink:href="#SVGID_3_"  overflow="visible"/>
		</clipPath>
		<path clip-path="url(#SVGID_4_)" fill="#F2BE4C" d="M1250.001,1240.318c-2.597,0-5.039,1.012-6.876,2.847
			c-1.837,1.837-2.847,4.279-2.847,6.876s1.012,5.039,2.847,6.876c1.837,1.834,4.279,2.847,6.876,2.847
			c2.597,0,5.039-1.012,6.876-2.847c1.834-1.837,2.847-4.279,2.847-6.876s-1.012-5.039-2.847-6.876
			C1255.041,1241.331,1252.598,1240.318,1250.001,1240.318L1250.001,1240.318z"/>
	</g>
	<g>
		<defs>
			<rect id="SVGID_5_" x="1237.5" y="1237.5" width="25" height="25"/>
		</defs>
		<clipPath id="SVGID_6_">
			<use xlink:href="#SVGID_5_"  overflow="visible"/>
		</clipPath>
		<path clip-path="url(#SVGID_6_)" d="M1249.25,1253.153h5.416v2.722h-3.335c0.054,0.779,0.084,1.501,0.138,2.277h-2.806v-2.249
			h-3.335c0-0.89-0.111-1.778,0.054-2.611c0.084-0.445,0.583-0.833,0.89-1.221c1.056-1.251,2.111-2.472,3.194-3.723
			c0.418-0.472,0.833-0.917,1.305-1.444h-5.194v-2.722h3.083v-2.277h2.695v2.223h3.362c0,0.917,0.111,1.804-0.054,2.64
			c-0.084,0.445-0.583,0.833-0.917,1.221c-1.056,1.251-2.111,2.472-3.194,3.723
			C1250.14,1252.209,1249.725,1252.652,1249.25,1253.153L1249.25,1253.153z"/>
	</g>
</g>
</svg>
