<?xml version="1.0" encoding="utf-8"?>
<!-- Generator: Adobe Illustrator 17.0.0, SVG Export Plug-In . SVG Version: 6.00 Build 0)  -->
<!DOCTYPE svg PUBLIC "-//W3C//DTD SVG 1.1//EN" "http://www.w3.org/Graphics/SVG/1.1/DTD/svg11.dtd">
<svg version="1.1" id="Слой_1" xmlns="http://www.w3.org/2000/svg" xmlns:xlink="http://www.w3.org/1999/xlink" x="0px" y="0px"
	 width="71px" height="62px" viewBox="0 0 71 62" enable-background="new 0 0 71 62" xml:space="preserve">
<g>
	<defs>
		<rect id="SVGID_1_" width="71" height="62"/>
	</defs>
	<clipPath id="SVGID_2_">
		<use xlink:href="#SVGID_1_"  overflow="visible"/>
	</clipPath>
	<g clip-path="url(#SVGID_2_)">
		<g>
			<path fill="#EDC443" d="M20.663,17.295c-1.469,0-2.85,0.572-3.889,1.611c-1.039,1.038-1.611,2.42-1.611,3.889
				s0.572,2.851,1.611,3.889c1.039,1.039,2.42,1.611,3.889,1.611c1.469,0,2.851-0.572,3.889-1.611
				c1.039-1.038,1.611-2.42,1.611-3.889s-0.572-2.851-1.611-3.889C23.513,17.867,22.132,17.295,20.663,17.295z"/>
			<path fill="#EDC443" d="M37.977,34.815c-1.039-1.039-2.42-1.61-3.889-1.61c-1.469,0-2.851,0.571-3.889,1.61
				c-2.145,2.146-2.145,5.635,0,7.778c1.039,1.039,2.42,1.611,3.889,1.611c1.469,0,2.85-0.572,3.889-1.611
				C40.121,40.45,40.121,36.961,37.977,34.815z"/>
		</g>
		<path fill="#44EABE" d="M69.304,7.753c-1.252-2.054-3.227-3.494-5.559-4.054l-3.51-0.85c-0.339-0.082-0.719,0.024-0.962,0.274
			c-0.188,0.193-0.291,0.455-0.283,0.726l1.24,44.09c0.014,0.501,0.396,0.913,0.895,0.966c0.036,0.004,0.071,0.006,0.106,0.006
			c0.456,0,0.861-0.312,0.971-0.764l8.17-33.593C70.933,12.22,70.554,9.804,69.304,7.753z"/>
		<g>
			<path d="M67.449,8.253c-1.252-2.054-3.227-3.494-5.559-4.054l-3.51-0.85c-0.004-0.001-0.008,0-0.011-0.001
				C56.718,1.308,54.197,0,51.375,0h-42c-4.962,0-9,4.038-9,9v44c0,0.16,0,0.321,0.008,0.48c0,0.002,0.001,0.003,0.001,0.005
				c-0.001,0.015-0.002,0.03-0.002,0.045c-0.006,0.072-0.007,0.142-0.007,0.22c0,4.549,3.701,8.25,8.25,8.25
				c0.077,0,0.147-0.001,0.22-0.007c0.028,0,0.055-0.001,0.083-0.004c0.001,0,0.002,0,0.003,0c3.027-0.109,5.604-1.818,6.948-4.299
				C17.28,60.256,20.002,62,23.125,62c3.125,0,5.851-1.747,7.25-4.316C31.774,60.253,34.5,62,37.625,62
				c3.123,0,5.845-1.744,7.246-4.31c1.344,2.481,3.921,4.189,6.948,4.299c0.014,0,0.028,0.001,0.042,0.001
				c0.088,0.008,0.177,0.01,0.265,0.01c4.549,0,8.25-3.701,8.25-8.25c0-0.086-0.002-0.171-0.009-0.256
				c0.008-0.164,0.009-0.329,0.009-0.494v-4.469l8.142-33.477C69.078,12.719,68.699,10.304,67.449,8.253z M52.054,60
				c-0.051-0.008-0.1-0.011-0.154-0.01c-0.008,0-0.017,0-0.025,0c-3.366-0.13-6-2.868-6-6.24c0-0.553-0.448-1-1-1s-1,0.447-1,1
				c0,3.446-2.804,6.25-6.25,6.25s-6.25-2.804-6.25-6.25c0-0.553-0.448-1-1-1s-1,0.447-1,1c0,3.446-2.804,6.25-6.25,6.25
				s-6.25-2.804-6.25-6.25c0-0.553-0.448-1-1-1s-1,0.447-1,1c0,3.372-2.634,6.11-6,6.24c-0.003,0-0.007,0-0.01,0
				c-0.005,0-0.01,0-0.015,0c-0.005,0-0.011,0-0.016,0c-0.003,0-0.008-0.001-0.01,0c-0.001,0-0.002,0.001-0.003,0.001
				c-0.008,0-0.016,0-0.025,0C8.738,59.986,8.681,59.992,8.625,60c-3.446,0-6.25-2.804-6.25-6.313
				c0.006-0.046,0.009-0.093,0.009-0.139c0,0,0,0,0,0c0,0,0-0.001,0-0.001c0-0.008,0-0.015,0-0.022c0-0.01,0-0.02,0-0.029
				c0-0.025,0-0.052-0.002-0.077C2.375,53.279,2.375,53.14,2.375,53V9c0-3.86,3.14-7,7-7h42c3.86,0,7,3.14,7,7v44
				c0,0.14,0,0.279-0.008,0.418c-0.001,0.025-0.002,0.052-0.002,0.077c0,0.01,0,0.02,0,0.029c0,0.001,0.001,0.003,0.001,0.004
				c0,0.01,0,0.021,0.001,0.031c-0.003,0.065,0,0.129,0.008,0.19C58.375,57.196,55.571,60,52.054,60z M66.573,14.584l-6.198,25.484
				V9c0-1.151-0.225-2.248-0.621-3.261l1.667,0.404c1.813,0.436,3.347,1.554,4.32,3.151C66.714,10.89,67.009,12.77,66.573,14.584z"
				/>
			<path d="M27.552,26.934c1.039-1.038,1.611-2.42,1.611-3.889s-0.572-2.851-1.611-3.889c-1.039-1.039-2.42-1.611-3.889-1.611
				c-1.469,0-2.85,0.572-3.889,1.611c-1.039,1.039-1.611,2.42-1.611,3.889s0.572,2.851,1.611,3.889
				c1.039,1.039,2.42,1.611,3.889,1.611C25.132,28.545,26.513,27.973,27.552,26.934z M20.163,23.045
				c0-0.935,0.364-1.814,1.025-2.475c0.661-0.662,1.541-1.025,2.475-1.025c0.935,0,1.814,0.364,2.475,1.025
				c0.661,0.66,1.025,1.54,1.025,2.475s-0.364,1.813-1.025,2.475c-1.322,1.321-3.627,1.323-4.95,0
				C20.526,24.858,20.163,23.979,20.163,23.045z"/>
			<path d="M37.087,33.455c-1.469,0-2.851,0.571-3.889,1.61c-2.145,2.146-2.145,5.635,0,7.778c1.039,1.039,2.42,1.611,3.889,1.611
				c1.469,0,2.85-0.572,3.889-1.611c2.145-2.144,2.145-5.633,0-7.778C39.938,34.026,38.556,33.455,37.087,33.455z M39.563,41.43
				c-1.323,1.321-3.629,1.321-4.95,0c-1.365-1.364-1.365-3.585,0-4.95c0.661-0.661,1.54-1.024,2.475-1.024
				c0.935,0,1.814,0.363,2.475,1.024C40.927,37.845,40.927,40.065,39.563,41.43z"/>
			<path d="M40.363,21.012c-0.391-0.391-1.023-0.391-1.414,0L20.387,39.573c-0.391,0.391-0.391,1.023,0,1.414
				c0.195,0.195,0.451,0.293,0.707,0.293s0.512-0.098,0.707-0.293l18.562-18.562C40.753,22.035,40.753,21.402,40.363,21.012z"/>
		</g>
	</g>
</g>
</svg>
