<?xml version="1.0" encoding="utf-8"?>
<!-- Generator: Adobe Illustrator 17.0.0, SVG Export Plug-In . SVG Version: 6.00 Build 0)  -->
<!DOCTYPE svg PUBLIC "-//W3C//DTD SVG 1.1//EN" "http://www.w3.org/Graphics/SVG/1.1/DTD/svg11.dtd">
<svg version="1.1" id="Слой_1" xmlns="http://www.w3.org/2000/svg" xmlns:xlink="http://www.w3.org/1999/xlink" x="0px" y="0px"
	 width="70px" height="66px" viewBox="0 0 70 66" enable-background="new 0 0 70 66" xml:space="preserve">
<g>
	<defs>
		<rect id="SVGID_1_" width="70" height="66"/>
	</defs>
	<clipPath id="SVGID_2_">
		<use xlink:href="#SVGID_1_"  overflow="visible"/>
	</clipPath>
	<g clip-path="url(#SVGID_2_)">
		<path fill="#44EABE" d="M7.124,36.791h-3.75c-1.585,0-2.875,1.29-2.875,2.875v22.5c0,1.585,1.29,2.875,2.875,2.875h3.75
			c3.653,0,6.625-2.972,6.625-6.625v-15C13.749,39.763,10.778,36.791,7.124,36.791z M9.171,47.166c0,1.129-0.918,2.047-2.047,2.047
			s-2.047-0.918-2.047-2.047s0.918-2.047,2.047-2.047S9.171,46.037,9.171,47.166z"/>
		<g>
			<path fill="#EDC443" d="M54.124,18.625c-3.309,0-6,2.691-6,6s2.691,6,6,6s6-2.691,6-6S57.433,18.625,54.124,18.625z"/>
			<path fill="#EDC443" d="M29.374,6.125c0-2.757-2.243-5-5-5s-5,2.243-5,5s2.243,5,5,5S29.374,8.882,29.374,6.125z"/>
			<path fill="#EDC443" d="M52.374,8.625c0-4.687-3.813-8.5-8.5-8.5s-8.5,3.813-8.5,8.5s3.813,8.5,8.5,8.5
				S52.374,13.312,52.374,8.625z"/>
			<path fill="#EDC443" d="M31.624,17.625c-3.859,0-7,3.141-7,7s3.141,7,7,7s7-3.141,7-7S35.484,17.625,31.624,17.625z"/>
		</g>
		<g>
			<path d="M51.124,27.375c0,3.309,2.691,6,6,6s6-2.691,6-6s-2.691-6-6-6S51.124,24.066,51.124,27.375z M57.124,23.375
				c2.206,0,4,1.794,4,4s-1.794,4-4,4s-4-1.794-4-4S54.918,23.375,57.124,23.375z"/>
			<path d="M27.374,13.875c2.757,0,5-2.243,5-5s-2.243-5-5-5s-5,2.243-5,5S24.618,13.875,27.374,13.875z M27.374,5.875
				c1.654,0,3,1.346,3,3s-1.346,3-3,3s-3-1.346-3-3S25.72,5.875,27.374,5.875z"/>
			<path d="M46.874,19.875c4.687,0,8.5-3.813,8.5-8.5s-3.813-8.5-8.5-8.5s-8.5,3.813-8.5,8.5S42.188,19.875,46.874,19.875z
				 M46.874,4.875c3.584,0,6.5,2.916,6.5,6.5s-2.916,6.5-6.5,6.5s-6.5-2.916-6.5-6.5S43.29,4.875,46.874,4.875z"/>
			<path d="M27.624,27.375c0,3.86,3.141,7,7,7s7-3.14,7-7s-3.141-7-7-7S27.624,23.515,27.624,27.375z M34.624,22.375
				c2.757,0,5,2.243,5,5s-2.243,5-5,5s-5-2.243-5-5S31.868,22.375,34.624,22.375z"/>
			<path d="M10.124,37.625h-3.75c-1.585,0-2.875,1.29-2.875,2.875V63c0,1.585,1.29,2.875,2.875,2.875h3.75
				c3.653,0,6.625-2.972,6.625-6.625v-15C16.749,40.597,13.778,37.625,10.124,37.625z M14.749,59.25c0,2.55-2.075,4.625-4.625,4.625
				h-3.75c-0.482,0-0.875-0.393-0.875-0.875V40.5c0-0.482,0.393-0.875,0.875-0.875h3.75c2.55,0,4.625,2.075,4.625,4.625V59.25z"/>
			<path d="M10.124,45.125c-1.585,0-2.875,1.29-2.875,2.875s1.29,2.875,2.875,2.875s2.875-1.29,2.875-2.875
				S11.709,45.125,10.124,45.125z M10.124,48.875c-0.482,0-0.875-0.393-0.875-0.875s0.393-0.875,0.875-0.875
				s0.875,0.393,0.875,0.875S10.607,48.875,10.124,48.875z"/>
			<path d="M69.448,41.682c-0.188-1.271-0.864-2.388-1.902-3.145c-1.883-1.375-4.65-1.139-6.317,0.651L51.016,51.752
				c-0.463,0.498-1.539,0.873-2.011,0.873H38.173c-1.098,0-2.082,0.608-2.57,1.588c-0.209,0.418-0.74,0.609-1.174,0.392
				c-0.209-0.104-0.364-0.283-0.438-0.504c-0.074-0.222-0.058-0.459,0.048-0.668c0.785-1.578,2.37-2.558,4.135-2.558h9.576
				c2.619,0,4.75-2.131,4.75-4.75s-2.131-4.75-4.75-4.75h-5.625c-0.813,0-0.813,0-1.534-0.649l-0.386-0.345
				c-1.884-1.658-4.763-2.535-8.323-2.535c-4.574,0-9.78,1.491-12.955,3.71c-0.268,0.187-0.427,0.493-0.427,0.819v18.75
				c0,0.416,0.257,0.788,0.646,0.936c0.515,0.194,1.271,0.519,2.151,0.896c3.728,1.598,6.956,2.919,8.727,2.919h17.727
				c3.838,0,7.502-1.833,9.819-4.931l10.98-15.719C69.317,44.206,69.636,42.947,69.448,41.682z M66.931,44.052L55.949,59.772
				c-1.923,2.569-4.988,4.103-8.199,4.103H30.023c-1.504,0-5.532-1.726-7.939-2.757c-0.594-0.254-1.133-0.485-1.584-0.671V42.91
				c2.895-1.845,7.387-3.064,11.382-3.064c2.139,0,5.09,0.354,7.003,2.037l0.367,0.328c0.919,0.828,1.352,1.164,2.873,1.164h5.625
				c1.517,0,2.75,1.233,2.75,2.75s-1.233,2.75-2.75,2.75h-9.576c-2.528,0-4.799,1.404-5.925,3.664
				c-0.344,0.688-0.398,1.467-0.154,2.195c0.243,0.729,0.757,1.319,1.44,1.659c0.396,0.199,0.839,0.304,1.282,0.304
				c1.1,0,2.086-0.61,2.575-1.592c0.148-0.297,0.447-0.48,0.781-0.48h10.832c0.995,0,2.607-0.578,3.52-1.562l10.21-12.562
				c0.918-0.981,2.541-1.146,3.631-0.35c0.603,0.439,0.994,1.087,1.104,1.823C67.579,42.708,67.394,43.435,66.931,44.052z"/>
		</g>
	</g>
</g>
</svg>
