<?xml version="1.0" encoding="utf-8"?>
<!-- Generator: Adobe Illustrator 17.0.0, SVG Export Plug-In . SVG Version: 6.00 Build 0)  -->
<!DOCTYPE svg PUBLIC "-//W3C//DTD SVG 1.1//EN" "http://www.w3.org/Graphics/SVG/1.1/DTD/svg11.dtd">
<svg version="1.1" id="Слой_1" xmlns="http://www.w3.org/2000/svg" xmlns:xlink="http://www.w3.org/1999/xlink" x="0px" y="0px"
	 width="128px" height="92px" viewBox="0 0 128 92" enable-background="new 0 0 128 92" xml:space="preserve">
<g>
	<defs>
		<rect id="SVGID_1_" width="128" height="92"/>
	</defs>
	<clipPath id="SVGID_2_">
		<use xlink:href="#SVGID_1_"  overflow="visible"/>
	</clipPath>
	<g clip-path="url(#SVGID_2_)">
		<path fill="#44EABE" d="M60,26.85c-4.962,0-9,4.037-9,9v5.08c0,0.001,0,0.002,0,0.002s0,0.002,0,0.002c0,0.553,0.448,1,1,1h16
			c0.553,0,1-0.447,1-1c0-0.001,0-0.002,0-0.002s0-0.002,0-0.002v-5.08c0-2.396-0.934-4.655-2.633-6.367
			C64.669,27.785,62.407,26.85,60,26.85z"/>
		<path fill="#44EABE" d="M39,26.85c-4.962,0-9,4.037-9,9v5.08c0,0.001,0,0.002,0,0.002s0,0.002,0,0.002c0,0.553,0.448,1,1,1h16
			c0.552,0,1-0.447,1-1c0-0.001,0-0.002,0-0.002s0-0.002,0-0.002v-5.08c0-2.396-0.934-4.656-2.633-6.367
			C43.669,27.785,41.408,26.85,39,26.85z"/>
		<path fill="#44EABE" d="M90,35.85c0-2.396-0.934-4.655-2.633-6.367c-1.698-1.698-3.96-2.633-6.367-2.633c-4.963,0-9,4.037-9,9
			v5.08c0,0.001,0,0.002,0,0.002s0,0.002,0,0.002c0,0.553,0.447,1,1,1h16c0.553,0,1-0.447,1-1c0-0.001,0-0.002,0-0.002
			s0-0.002,0-0.002V35.85z"/>
	</g>
	<g clip-path="url(#SVGID_2_)">
		<path fill="#EDC443" d="M63.25,71.685c-3.033,0-5.5,2.468-5.5,5.5s2.467,5.5,5.5,5.5c3.032,0,5.5-2.468,5.5-5.5
			S66.282,71.685,63.25,71.685z"/>
		<path fill="#EDC443" d="M42.25,71.685c-3.033,0-5.5,2.468-5.5,5.5s2.467,5.5,5.5,5.5s5.5-2.468,5.5-5.5
			S45.283,71.685,42.25,71.685z"/>
		<path fill="#EDC443" d="M84.25,71.685c-3.032,0-5.5,2.468-5.5,5.5s2.468,5.5,5.5,5.5s5.5-2.468,5.5-5.5
			S87.282,71.685,84.25,71.685z"/>
		<path fill="#EDC443" d="M15.268,67.202c-2.196,0-3.982,1.786-3.982,3.982s1.787,3.982,3.982,3.982s3.982-1.786,3.982-3.982
			S17.463,67.202,15.268,67.202z"/>
		<path fill="#EDC443" d="M111.232,47.202c-2.196,0-3.982,1.786-3.982,3.982s1.786,3.982,3.982,3.982s3.982-1.786,3.982-3.982
			S113.429,47.202,111.232,47.202z"/>
		<path fill="#EDC443" d="M111.232,19c2.196,0,3.982-1.786,3.982-3.982s-1.786-3.982-3.982-3.982s-3.982,1.786-3.982,3.982
			S109.036,19,111.232,19z"/>
		<path fill="#EDC443" d="M53.232,11.035c-2.196,0-3.982,1.786-3.982,3.982S51.037,19,53.232,19s3.982-1.786,3.982-3.982
			S55.428,11.035,53.232,11.035z"/>
	</g>
	<g clip-path="url(#SVGID_2_)">
		<path d="M64,73.083c-3.033,0-5.5,2.468-5.5,5.5s2.467,5.5,5.5,5.5c3.032,0,5.5-2.468,5.5-5.5S67.032,73.083,64,73.083z M64,82.083
			c-1.93,0-3.5-1.57-3.5-3.5s1.57-3.5,3.5-3.5s3.5,1.57,3.5,3.5S65.929,82.083,64,82.083z"/>
		<path d="M68.395,67.333h-0.389c-0.553,0-1,0.447-1,1s0.447,1,1,1h0.389c0.553,0,1-0.447,1-1S68.948,67.333,68.395,67.333z"/>
		<path d="M59.625,69.333h5.03c0.552,0,1-0.447,1-1s-0.448-1-1-1h-5.03c-0.552,0-1,0.447-1,1S59.073,69.333,59.625,69.333z"/>
		<path d="M59.625,62.333h8.75c0.553,0,1-0.447,1-1s-0.447-1-1-1h-8.75c-0.552,0-1,0.447-1,1S59.073,62.333,59.625,62.333z"/>
		<path d="M59.625,55.333h8.75c0.553,0,1-0.448,1-1s-0.447-1-1-1h-8.75c-0.552,0-1,0.448-1,1S59.073,55.333,59.625,55.333z"/>
		<path d="M59.625,48.333h8.75c0.553,0,1-0.448,1-1s-0.447-1-1-1h-8.75c-0.552,0-1,0.448-1,1S59.073,48.333,59.625,48.333z"/>
		<path d="M43,73.083c-3.033,0-5.5,2.468-5.5,5.5s2.467,5.5,5.5,5.5s5.5-2.468,5.5-5.5S46.032,73.083,43,73.083z M43,82.083
			c-1.93,0-3.5-1.57-3.5-3.5s1.57-3.5,3.5-3.5s3.5,1.57,3.5,3.5S44.929,82.083,43,82.083z"/>
		<path d="M47.395,67.333h-0.389c-0.552,0-1,0.447-1,1s0.448,1,1,1h0.389c0.552,0,1-0.447,1-1S47.948,67.333,47.395,67.333z"/>
		<path d="M38.625,69.333h5.03c0.552,0,1-0.447,1-1s-0.448-1-1-1h-5.03c-0.552,0-1,0.447-1,1S38.073,69.333,38.625,69.333z"/>
		<path d="M38.625,62.333h8.75c0.552,0,1-0.447,1-1s-0.448-1-1-1h-8.75c-0.552,0-1,0.447-1,1S38.073,62.333,38.625,62.333z"/>
		<path d="M38.625,55.333h8.75c0.552,0,1-0.448,1-1s-0.448-1-1-1h-8.75c-0.552,0-1,0.448-1,1S38.073,55.333,38.625,55.333z"/>
		<path d="M38.625,48.333h8.75c0.552,0,1-0.448,1-1s-0.448-1-1-1h-8.75c-0.552,0-1,0.448-1,1S38.073,48.333,38.625,48.333z"/>
		<path d="M85,73.083c-3.032,0-5.5,2.468-5.5,5.5s2.468,5.5,5.5,5.5s5.5-2.468,5.5-5.5S88.032,73.083,85,73.083z M85,82.083
			c-1.93,0-3.5-1.57-3.5-3.5s1.57-3.5,3.5-3.5s3.5,1.57,3.5,3.5S86.929,82.083,85,82.083z"/>
		<path d="M89.395,67.333h-0.389c-0.553,0-1,0.447-1,1s0.447,1,1,1h0.389c0.553,0,1-0.447,1-1S89.948,67.333,89.395,67.333z"/>
		<path d="M80.625,69.333h5.03c0.553,0,1-0.447,1-1s-0.447-1-1-1h-5.03c-0.553,0-1,0.447-1,1S80.072,69.333,80.625,69.333z"/>
		<path d="M80.625,62.333h8.75c0.553,0,1-0.447,1-1s-0.447-1-1-1h-8.75c-0.553,0-1,0.447-1,1S80.072,62.333,80.625,62.333z"/>
		<path d="M80.625,55.333h8.75c0.553,0,1-0.448,1-1s-0.447-1-1-1h-8.75c-0.553,0-1,0.448-1,1S80.072,55.333,80.625,55.333z"/>
		<path d="M80.625,48.333h8.75c0.553,0,1-0.448,1-1s-0.447-1-1-1h-8.75c-0.553,0-1,0.448-1,1S80.072,48.333,80.625,48.333z"/>
		<path d="M126.98,51.583h-11.158c-0.363-1.39-1.451-2.478-2.842-2.84V20.257c1.391-0.362,2.481-1.452,2.843-2.843h11.157
			c0.553,0,1-0.448,1-1s-0.447-1-1-1h-11.159c-0.364-1.388-1.452-2.475-2.841-2.837V1.417c0-0.552-0.447-1-1-1s-1,0.448-1,1v11.161
			c-1.387,0.363-2.473,1.449-2.837,2.836H57.821c-0.364-1.388-1.452-2.475-2.841-2.837V1.417c0-0.552-0.448-1-1-1s-1,0.448-1,1
			v11.161c-1.387,0.363-2.473,1.449-2.836,2.835H25.67c-0.552,0-1,0.448-1,1s0.448,1,1,1h24.472
			c0.446,1.712,1.991,2.985,3.841,2.985s3.395-1.273,3.841-2.985h50.319c0.362,1.39,1.449,2.479,2.839,2.842v28.489
			c-1.388,0.363-2.475,1.451-2.838,2.839H94v-17.33c0-2.396-0.934-4.656-2.633-6.367c-1.698-1.698-3.96-2.633-6.367-2.633
			c-4.963,0-9,4.038-9,9v43.33h-3v-43.33c0-2.396-0.934-4.656-2.633-6.367c-1.698-1.698-3.96-2.633-6.367-2.633
			c-4.962,0-9,4.038-9,9v43.33h-3v-43.33c0-2.396-0.934-4.657-2.633-6.367c-1.698-1.698-3.959-2.633-6.367-2.633
			c-4.962,0-9,4.038-9,9v37.33H19.857c-0.363-1.388-1.449-2.475-2.837-2.839V57.583c0-0.552-0.448-1-1-1s-1,0.448-1,1v11.16
			c-1.39,0.362-2.479,1.45-2.842,2.84H1.02c-0.552,0-1,0.447-1,1s0.448,1,1,1h11.158c0.363,1.39,1.452,2.478,2.842,2.84v11.16
			c0,0.553,0.448,1,1,1s1-0.447,1-1V76.422c1.388-0.363,2.475-1.451,2.837-2.839H34v17c0,0.553,0.448,1,1,1h16c0.552,0,1-0.447,1-1
			v-11h3v11c0,0.553,0.448,1,1,1h16c0.553,0,1-0.447,1-1v-11h3v11c0,0.553,0.447,1,1,1h16c0.553,0,1-0.447,1-1v-37h14.143
			c0.363,1.388,1.45,2.476,2.838,2.839v11.161c0,0.553,0.447,1,1,1s1-0.447,1-1v-11.16c1.39-0.362,2.479-1.451,2.842-2.84h11.158
			c0.553,0,1-0.448,1-1S127.533,51.583,126.98,51.583z M16.025,74.565c-0.002,0-0.004-0.001-0.006-0.001
			c-0.003,0-0.005,0.001-0.007,0.001c-1.086-0.003-1.967-0.882-1.976-1.966c0-0.006,0.003-0.01,0.003-0.016s-0.003-0.01-0.003-0.016
			c0.009-1.084,0.89-1.963,1.976-1.966c0.003,0,0.005,0.001,0.007,0.001c0.002,0,0.004-0.001,0.006-0.001
			C17.115,70.606,18,71.493,18,72.583S17.115,74.56,16.025,74.565z M43,27.253c1.874,0,3.633,0.727,4.951,2.044
			C49.272,30.629,50,32.388,50,34.253v4.08H36v-4.08C36,30.393,39.14,27.253,43,27.253z M50,89.583H36v-49.25h14V89.583z M64,27.253
			c1.874,0,3.633,0.727,4.95,2.044c1.322,1.332,2.05,3.091,2.05,4.956v4.08H57v-4.08C57,30.393,60.14,27.253,64,27.253z M71,89.583
			H57v-49.25h14V89.583z M85,27.253c1.874,0,3.633,0.727,4.95,2.044c1.322,1.332,2.05,3.091,2.05,4.956v4.08H78v-4.08
			C78,30.393,81.14,27.253,85,27.253z M92,89.583H78v-49.25h14V89.583z M53.982,18.399c-1.093,0-1.982-0.889-1.982-1.982
			c0-1.09,0.884-1.976,1.973-1.981c0.003,0,0.005,0.001,0.007,0.001c0.003,0,0.006-0.002,0.009-0.002
			c1.084,0.004,1.964,0.881,1.974,1.963c0,0.005-0.003,0.01-0.003,0.015c0,0.006,0.003,0.011,0.003,0.017
			C55.956,17.517,55.071,18.399,53.982,18.399z M110,16.417c0-1.09,0.885-1.976,1.973-1.981c0.003,0,0.005,0.001,0.007,0.001
			c0.003,0,0.006-0.002,0.009-0.002c1.083,0.004,1.964,0.881,1.974,1.963c0,0.005-0.003,0.01-0.003,0.015
			c0,0.006,0.003,0.011,0.003,0.017c-0.008,1.084-0.89,1.965-1.976,1.968c-0.003,0-0.005-0.001-0.007-0.001
			c-0.002,0-0.004,0.001-0.006,0.001C110.885,18.394,110,17.507,110,16.417z M111.989,54.565c-0.003,0-0.006-0.002-0.009-0.002
			c-0.003,0-0.005,0.001-0.007,0.001c-1.088-0.005-1.973-0.891-1.973-1.981s0.885-1.976,1.973-1.981
			c0.003,0,0.005,0.001,0.007,0.001c0.003,0,0.006-0.002,0.009-0.002c1.084,0.004,1.965,0.882,1.974,1.966
			c0,0.006-0.003,0.01-0.003,0.016s0.003,0.01,0.003,0.016C113.954,53.683,113.073,54.561,111.989,54.565z"/>
	</g>
</g>
</svg>
