<?xml version="1.0" encoding="utf-8"?>
<!-- Generator: Adobe Illustrator 17.0.0, SVG Export Plug-In . SVG Version: 6.00 Build 0)  -->
<!DOCTYPE svg PUBLIC "-//W3C//DTD SVG 1.1//EN" "http://www.w3.org/Graphics/SVG/1.1/DTD/svg11.dtd">
<svg version="1.1" id="Слой_1" xmlns="http://www.w3.org/2000/svg" xmlns:xlink="http://www.w3.org/1999/xlink" x="0px" y="0px"
	 width="26px" height="19px" viewBox="0 0 26 19" enable-background="new 0 0 26 19" xml:space="preserve">
<path fill="#F6D841" d="M21.625,14.657c-0.004,0.003-0.007,0.007-0.011,0.011c-0.004,0.004-0.007,0.007-0.011,0.011
	c-0.953,0.94-2.487,0.937-3.434-0.011c-0.952-0.952-0.952-2.494,0-3.445c0.951-0.952,2.494-0.952,3.445,0
	c0.951,0.951,2.494,0.951,3.445,0c0.951-0.952,0.951-2.494,0-3.446c-0.952-0.951-2.494-0.951-3.445,0
	c-0.952,0.952-2.494,0.952-3.445,0c-0.952-0.951-0.952-2.494,0-3.445c0.951-0.951,0.951-2.494,0-3.445
	c-0.952-0.951-2.494-0.951-3.445,0c-0.952,0.952-2.494,0.952-3.446,0c-0.951-0.951-2.494-0.951-3.445,0
	c-0.951,0.952-0.951,2.494,0,3.445c0.952,0.952,0.952,2.494,0,3.445c-0.951,0.952-2.494,0.952-3.445,0
	c-0.951-0.951-2.494-0.951-3.445,0c-0.951,0.952-0.951,2.494,0,3.446c0.952,0.951,2.494,0.951,3.445,0
	c0.952-0.952,2.494-0.952,3.445,0c0.952,0.951,0.952,2.494,0,3.445c-0.951,0.951-0.951,2.494,0,3.445
	c0.952,0.951,2.494,0.951,3.445,0c0.952-0.952,0.952-2.494,0-3.445c-0.951-0.952-0.951-2.494,0-3.445
	c0.952-0.952,0.952-2.494,0-3.446c-0.951-0.951-0.951-2.494,0-3.445c0.952-0.951,2.494-0.951,3.446,0
	c0.951,0.952,0.951,2.494,0,3.445c-0.952,0.952-0.952,2.494,0,3.446c0.951,0.951,0.951,2.494,0,3.445
	c-0.952,0.951-0.952,2.494,0,3.445c0.951,0.951,2.494,0.951,3.445,0c0.951-0.952,2.494-0.952,3.445,0
	c0.951,0.951,2.494,0.951,3.445,0c0.951-0.952,0.951-2.494,0-3.446C24.111,13.721,22.577,13.717,21.625,14.657z"/>
</svg>
