<?xml version="1.0" encoding="utf-8"?>
<!-- Generator: Adobe Illustrator 17.0.0, SVG Export Plug-In . SVG Version: 6.00 Build 0)  -->
<!DOCTYPE svg PUBLIC "-//W3C//DTD SVG 1.1//EN" "http://www.w3.org/Graphics/SVG/1.1/DTD/svg11.dtd">
<svg version="1.1" id="Слой_1" xmlns="http://www.w3.org/2000/svg" xmlns:xlink="http://www.w3.org/1999/xlink" x="0px" y="0px"
	 width="57px" height="60px" viewBox="0 0 57 60" enable-background="new 0 0 57 60" xml:space="preserve">
<g>
	<path fill="#F6D841" d="M21.609,11.05c0.952-0.951,2.494-0.951,3.445,0c0.952,0.952,2.494,0.952,3.446,0
		c0.951-0.951,0.951-2.494,0-3.445c-0.952-0.952-2.494-0.952-3.446,0c-0.951,0.952-2.494,0.952-3.445,0
		c-0.951-0.952-2.494-0.952-3.445,0c-0.951,0.952-0.951,2.494,0,3.445C19.115,12.002,20.658,12.002,21.609,11.05z"/>
	<path fill="#F6D841" d="M25.054,45.505c-0.951-0.952-0.951-2.494,0-3.445c0.952-0.952,0.952-2.494,0-3.445
		c-0.951-0.952-2.494-0.952-3.445,0c-0.951,0.951-0.951,2.494,0,3.445c0.952,0.951,0.952,2.494,0,3.445
		c-0.951,0.951-2.494,0.951-3.445,0c-0.951-0.952-0.951-2.494,0-3.445c0.952-0.952,0.952-2.494,0-3.445
		c-0.951-0.952-2.494-0.952-3.445,0c-0.951,0.951-2.494,0.951-3.445,0c-0.951-0.952-0.951-2.494,0-3.445
		c0.952-0.952,2.494-0.952,3.445,0c0.952,0.951,2.494,0.951,3.445,0c0.952-0.952,2.494-0.952,3.445,0
		c0.952,0.951,2.494,0.951,3.445,0c0.952-0.952,0.952-2.494,0-3.445c-0.951-0.952-2.494-0.952-3.445,0
		c-0.951,0.951-2.494,0.951-3.445,0c-0.951-0.952-2.494-0.952-3.445,0c-0.951,0.951-2.494,0.951-3.445,0
		c-0.951-0.952-0.951-2.494,0-3.446c0.952-0.951,0.952-2.494,0-3.445c-0.951-0.951-0.951-2.494,0-3.445
		c0.952-0.951,2.494-0.951,3.445,0c0.952,0.952,0.952,2.494,0,3.445c-0.951,0.952-0.951,2.494,0,3.445
		c0.952,0.952,2.494,0.952,3.445,0c0.952-0.951,2.494-0.951,3.445,0c0.952,0.952,2.494,0.952,3.445,0
		c0.952-0.951,2.494-0.951,3.446,0c0.951,0.952,2.494,0.952,3.445,0c0.951-0.951,0.951-2.494,0-3.445
		c-0.952-0.951-2.494-0.951-3.445,0c-0.952,0.952-2.494,0.952-3.446,0c-0.951-0.951-2.494-0.951-3.445,0
		c-0.951,0.952-2.494,0.952-3.445,0c-0.951-0.951-0.951-2.494,0-3.445c0.952-0.951,0.952-2.494,0-3.445
		c-0.951-0.951-2.494-0.951-3.445,0c-0.951,0.952-2.494,0.952-3.445,0c-0.951-0.951-2.494-0.951-3.445,0
		c-0.952,0.952-0.952,2.494,0,3.445c0.952,0.952,0.952,2.494,0,3.445c-0.952,0.952-2.494,0.952-3.445,0
		c-0.952-0.951-2.494-0.951-3.445,0c-0.952,0.952-0.952,2.494,0,3.445c0.952,0.952,0.952,2.494,0,3.446
		c-0.952,0.951-0.952,2.494,0,3.445c0.952,0.951,2.494,0.951,3.445,0c0.952-0.952,2.494-0.952,3.445,0
		c0.952,0.951,0.952,2.494,0,3.445c-0.952,0.951-0.952,2.494,0,3.445c0.952,0.951,2.494,0.951,3.445,0
		c0.952-0.952,2.494-0.952,3.445,0c0.952,0.951,0.952,2.494,0,3.445c-0.951,0.951-0.951,2.494,0,3.445
		c0.952,0.951,2.494,0.951,3.445,0c0.952-0.952,2.494-0.952,3.445,0c0.952,0.951,2.494,0.951,3.445,0
		C26.006,47.998,26.006,46.456,25.054,45.505z M4.382,31.723c-0.952-0.952-0.952-2.494,0-3.446c0.952-0.951,2.494-0.951,3.445,0
		c0.952,0.952,0.952,2.494,0,3.446C6.876,32.674,5.333,32.674,4.382,31.723z"/>
	<path fill="#F6D841" d="M56.064,35.168c-0.952-0.952-2.494-0.952-3.445,0c-0.952,0.951-2.494,0.951-3.445,0
		c-0.952-0.952-0.952-2.494,0-3.445c0.952-0.952,0.952-2.494,0-3.446c-0.952-0.951-0.952-2.494,0-3.445
		c0.952-0.951,0.952-2.494,0-3.445c-0.952-0.951-0.952-2.494,0-3.445c0.952-0.951,0.952-2.494,0-3.445
		c-0.952-0.951-2.494-0.951-3.445,0c-0.952,0.952-2.494,0.952-3.445,0c-0.952-0.951-0.952-2.494,0-3.445
		c0.951-0.951,0.951-2.494,0-3.445c-0.952-0.952-2.494-0.952-3.445,0c-0.952,0.952-2.494,0.952-3.445,0
		c-0.952-0.952-0.952-2.494,0-3.445c0.951-0.952,0.951-2.494,0-3.445c-0.952-0.952-2.494-0.952-3.445,0
		c-0.952,0.952-0.952,2.494,0,3.445c0.951,0.952,0.951,2.494,0,3.445c-0.952,0.952-0.952,2.494,0,3.445
		c0.951,0.952,0.951,2.494,0,3.445c-0.952,0.952-0.952,2.494,0,3.445c0.951,0.952,2.494,0.952,3.445,0
		c0.951-0.951,0.951-2.494,0-3.445c-0.952-0.951-0.952-2.494,0-3.445c0.951-0.951,2.494-0.951,3.445,0
		c0.951,0.952,0.951,2.494,0,3.445c-0.952,0.952-0.952,2.494,0,3.445c0.951,0.952,2.494,0.952,3.445,0
		c0.951-0.951,2.494-0.951,3.445,0c0.951,0.952,0.951,2.494,0,3.445c-0.952,0.952-0.952,2.494,0,3.445
		c0.951,0.952,0.951,2.494,0,3.445c-0.952,0.952-0.952,2.494,0,3.446c0.951,0.951,0.951,2.494,0,3.445
		c-0.952,0.951-2.494,0.951-3.445,0c-0.952-0.952-0.952-2.494,0-3.445c0.951-0.952,0.951-2.494,0-3.446
		c-0.952-0.951-0.952-2.494,0-3.445c0.951-0.951,0.951-2.494,0-3.445c-0.952-0.951-2.494-0.951-3.445,0
		c-0.952,0.952-0.952,2.494,0,3.445c0.951,0.952,0.951,2.494,0,3.445c-0.952,0.952-0.952,2.494,0,3.446
		c0.951,0.951,0.951,2.494,0,3.445c-0.952,0.951-2.494,0.951-3.445,0c-0.952-0.952-2.494-0.952-3.445,0
		c-0.952,0.951-0.952,2.494,0,3.445c0.951,0.951,0.951,2.494,0,3.445c-0.952,0.951-0.952,2.494,0,3.445
		c0.951,0.951,0.951,2.494,0,3.445c-0.952,0.951-0.952,2.494,0,3.445c0.951,0.952,0.951,2.494,0,3.445
		c-0.952,0.952-2.494,0.952-3.445,0c-0.952-0.952-2.494-0.952-3.446,0c-0.951,0.952-0.951,2.494,0,3.445
		c0.952,0.952,2.494,0.952,3.446,0c0.951-0.952,2.494-0.952,3.445,0c0.951,0.952,2.494,0.952,3.445,0
		c0.951-0.952,0.951-2.494,0-3.445c-0.952-0.952-0.952-2.494,0-3.445c0.951-0.952,2.494-0.952,3.445,0
		c0.951,0.952,2.494,0.952,3.445,0c0.951-0.952,0.951-2.494,0-3.445c-0.952-0.952-0.952-2.494,0-3.445
		c0.951-0.952,2.494-0.952,3.445,0c0.951,0.951,2.494,0.951,3.445,0c0.952-0.952,0.952-2.494,0-3.445
		c-0.952-0.952-2.494-0.952-3.445,0c-0.952,0.951-2.494,0.951-3.445,0c-0.952-0.952-2.494-0.952-3.445,0
		c-0.952,0.951-0.952,2.494,0,3.445c0.951,0.951,0.951,2.494,0,3.445c-0.952,0.951-2.494,0.951-3.445,0
		c-0.952-0.952-0.952-2.494,0-3.445c0.951-0.952,0.951-2.494,0-3.445c-0.952-0.952-0.952-2.494,0-3.445
		c0.951-0.952,2.494-0.952,3.445,0c0.951,0.951,2.494,0.951,3.445,0c0.951-0.952,2.494-0.952,3.445,0
		c0.951,0.951,2.494,0.951,3.445,0c0.952-0.952,2.494-0.952,3.445,0c0.952,0.951,2.494,0.951,3.445,0
		C57.015,37.662,57.015,36.119,56.064,35.168z"/>
</g>
</svg>
