<?xml version="1.0" encoding="utf-8"?>
<!-- Generator: Adobe Illustrator 17.0.0, SVG Export Plug-In . SVG Version: 6.00 Build 0)  -->
<!DOCTYPE svg PUBLIC "-//W3C//DTD SVG 1.1//EN" "http://www.w3.org/Graphics/SVG/1.1/DTD/svg11.dtd">
<svg version="1.1" id="Layer_1" xmlns="http://www.w3.org/2000/svg" xmlns:xlink="http://www.w3.org/1999/xlink" x="0px" y="0px"
	 width="200px" height="50px" viewBox="0 0 200 50" enable-background="new 0 0 200 50" xml:space="preserve">
<g>
	<defs>
		<rect id="SVGID_1_" y="0.245" width="200" height="49.51"/>
	</defs>
	<clipPath id="SVGID_2_">
		<use xlink:href="#SVGID_1_"  overflow="visible"/>
	</clipPath>
	<rect x="44.414" y="46.686" clip-path="url(#SVGID_2_)" fill="#EDD25F" width="113.154" height="0.49"/>
	<rect x="44.414" y="38.762" clip-path="url(#SVGID_2_)" fill="#EDD25F" width="103.35" height="0.49"/>
	<rect x="132.617" y="36.556" clip-path="url(#SVGID_2_)" fill="#EDD25F" width="15.423" height="4.902"/>
	<rect x="88.622" y="36.556" clip-path="url(#SVGID_2_)" fill="#EDD25F" width="15.423" height="4.902"/>
	<rect x="132.617" y="44.481" clip-path="url(#SVGID_2_)" fill="#EDD25F" width="15.423" height="4.902"/>
	<rect x="69.3" y="44.481" clip-path="url(#SVGID_2_)" fill="#EDD25F" width="15.423" height="4.902"/>
	<rect x="155.575" y="44.726" clip-path="url(#SVGID_2_)" fill="#EDD25F" width="15.423" height="4.902"/>
	<rect x="41.114" y="36.556" clip-path="url(#SVGID_2_)" fill="#EDD25F" width="15.423" height="4.902"/>
	<g clip-path="url(#SVGID_2_)">
		<rect x="41.114" y="44.481" fill="#EDD25F" width="15.423" height="4.902"/>
		<g>
			<path fill="#FFE98D" d="M167.878,12.135c0.296-0.473,0.467-1.032,0.467-1.63c0-1.702-1.38-3.082-3.082-3.082
				c-0.799,0-1.527,0.304-2.075,0.803c-0.767-1.248-2.144-2.08-3.716-2.08c-0.874,0-1.687,0.257-2.369,0.7
				c-0.406-3.712-3.551-6.6-7.37-6.6c-2.663,0-4.998,1.404-6.306,3.513c-0.585-0.292-1.244-0.456-1.942-0.456
				c-2.407,0-4.358,1.951-4.358,4.358c0,0.733,0.181,1.423,0.5,2.029c-0.165-0.014-0.332-0.022-0.5-0.022
				c-3.224,0-5.838,2.614-5.838,5.838c0,3.224,2.614,5.838,5.838,5.838c3.225,0,27.142,0,29.718,0c2.575,0,4.663-2.088,4.663-4.663
				C171.506,14.463,169.955,12.606,167.878,12.135z"/>
			<path fill="#FFE98D" d="M33.583,18.943c-0.108,0-0.214,0.005-0.32,0.014c0-0.033,0.001-0.066,0.001-0.099
				c0-3.206-2.385-5.855-5.477-6.27c0.001-0.019,0.003-0.038,0.003-0.057c0-0.725-0.588-1.313-1.313-1.313
				c-0.181,0-0.353,0.037-0.51,0.103c-1.46-2.839-4.418-4.781-7.83-4.781c-4.033,0-7.432,2.713-8.472,6.413
				C9.344,12.853,9.004,12.8,8.651,12.8c-1.886,0-3.415,1.529-3.415,3.415c0,0.576,0.143,1.117,0.394,1.593
				c-2.527,0.059-4.559,2.125-4.559,4.667c0,2.579,2.091,4.67,4.67,4.67c2.579,0,26.098,0,27.841,0c2.265,0,4.1-1.836,4.1-4.1
				C37.683,20.779,35.847,18.943,33.583,18.943z"/>
			<rect x="138.177" y="38.827" fill="#FFE98D" width="7.174" height="0.359"/>
			<circle fill="#FFE98D" cx="136.204" cy="39.007" r="0.897"/>
			<rect x="94.182" y="38.827" fill="#FFE98D" width="7.174" height="0.359"/>
			<circle fill="#FFE98D" cx="92.209" cy="39.007" r="0.897"/>
			<rect x="138.177" y="46.752" fill="#FFE98D" width="7.174" height="0.359"/>
			<circle fill="#FFE98D" cx="136.204" cy="46.932" r="0.897"/>
			<rect x="74.86" y="46.752" fill="#FFE98D" width="7.174" height="0.359"/>
			<circle fill="#FFE98D" cx="72.887" cy="46.932" r="0.897"/>
			<rect x="161.134" y="46.997" fill="#FFE98D" width="7.174" height="0.359"/>
			<circle fill="#FFE98D" cx="159.162" cy="47.177" r="0.897"/>
			<rect x="46.674" y="38.827" fill="#FFE98D" width="7.174" height="0.359"/>
			<circle fill="#FFE98D" cx="44.701" cy="39.007" r="0.897"/>
			<rect x="46.674" y="46.752" fill="#FFE98D" width="7.174" height="0.359"/>
			<circle fill="#FFE98D" cx="44.701" cy="46.932" r="0.897"/>
		</g>
	</g>
	<g clip-path="url(#SVGID_2_)">
		<path fill="#EFD154" d="M166.843,21.346h-11.615c0.299,1.333,1.49,2.333,2.917,2.333c0.25,0,0.493-0.032,0.728-0.091
			c0.201,2.037,1.919,3.625,4.007,3.625c1.225,0,2.321-0.547,3.061-1.409c0.645,0.85,1.664,1.4,2.814,1.4
			c0.162,0,0.321-0.012,0.478-0.032c0.493,2.49,2.686,4.368,5.321,4.368c2.868,0,5.216-2.225,5.412-5.044
			c0.556,0.233,1.169,0.363,1.811,0.363c2.6,0,4.708-2.11,4.708-4.711c0-0.199-0.012-0.395-0.037-0.588
			c0.5,1.064,1.581,1.801,2.833,1.801c1.728,0,3.13-1.4,3.13-3.127s-1.402-3.13-3.13-3.13h-0.054
			c0.034-0.203,0.054-0.414,0.054-0.63c0-2.074-1.679-3.752-3.752-3.752c-0.936,0-1.794,0.343-2.451,0.912
			c-0.525-3.799-3.784-6.728-7.728-6.728c-3.174,0-5.902,1.895-7.123,4.613c-0.02,0.002-0.037,0.005-0.056,0.007
			c-0.076,0.216-0.174,0.419-0.294,0.61c2.078,0.471,3.63,2.328,3.63,4.549C171.507,19.258,169.419,21.346,166.843,21.346z"/>
		<path fill="#EFD154" d="M159.408,33.611c-0.491,0-0.902,0.35-0.996,0.813h-3.469v-3.605v-0.203V15.166
			c0.463-0.094,0.813-0.505,0.813-0.996c0-0.56-0.456-1.016-1.016-1.016c-0.561,0-1.017,0.456-1.017,1.016
			c0,0.491,0.35,0.901,0.813,0.996v15.653h0.203l-0.203,0.203v3.808h3.876c0.094,0.463,0.505,0.813,0.996,0.813
			c0.561,0,1.017-0.456,1.017-1.016C160.424,34.067,159.969,33.611,159.408,33.611z M154.13,14.17c0-0.336,0.274-0.61,0.61-0.61
			c0.336,0,0.61,0.274,0.61,0.61c0,0.336-0.273,0.61-0.61,0.61C154.403,14.78,154.13,14.506,154.13,14.17z M159.408,35.237
			c-0.336,0-0.61-0.274-0.61-0.61c0-0.336,0.274-0.61,0.61-0.61s0.61,0.274,0.61,0.61C160.018,34.963,159.744,35.237,159.408,35.237
			z"/>
		<path fill="#EFD154" d="M23.283,47.742c-0.463,0.094-0.813,0.505-0.813,0.996c0,0.56,0.456,1.016,1.017,1.016
			c0.56,0,1.016-0.456,1.016-1.016c0-0.491-0.35-0.902-0.813-0.996v-2.251h18.698v-0.406H23.283V47.742z M24.096,48.738
			c0,0.336-0.274,0.61-0.61,0.61c-0.336,0-0.61-0.274-0.61-0.61c0-0.336,0.274-0.61,0.61-0.61
			C23.823,48.128,24.096,48.401,24.096,48.738z"/>
		<path fill="#EFD154" d="M6.68,39.857c-0.561,0-1.016,0.456-1.016,1.017c0,0.56,0.456,1.017,1.016,1.017
			c0.491,0,0.901-0.35,0.996-0.813h34.712V40.67H7.676C7.581,40.207,7.17,39.857,6.68,39.857z M6.68,41.484
			c-0.336,0-0.61-0.274-0.61-0.61c0-0.336,0.274-0.61,0.61-0.61s0.61,0.274,0.61,0.61C7.29,41.21,7.016,41.484,6.68,41.484z"/>
		<path fill="#EFD154" d="M3.86,35.068H2.092c-0.094-0.463-0.505-0.813-0.996-0.813c-0.56,0-1.016,0.456-1.016,1.016
			c0,0.561,0.456,1.017,1.016,1.017c0.491,0,0.902-0.35,0.996-0.813h1.361v2.409h38.934v-0.407H3.86V35.068z M1.096,35.882
			c-0.336,0-0.61-0.274-0.61-0.61c0-0.336,0.274-0.61,0.61-0.61s0.61,0.274,0.61,0.61C1.706,35.608,1.433,35.882,1.096,35.882z"/>
		<path fill="#EFD154" d="M146.745,26.262c-0.491,0-0.902,0.35-0.996,0.813h-5.501l-0.001-1.203
			c0.464-0.094,0.814-0.505,0.814-0.996c0-0.561-0.456-1.017-1.017-1.017c-0.56,0-1.017,0.456-1.017,1.017
			c0,0.491,0.349,0.901,0.812,0.996l0.001,1.406v4.495l-0.001,5.218h0.407l0.001-4.811h3.573c0.094,0.463,0.505,0.813,0.996,0.813
			c0.56,0,1.016-0.456,1.016-1.017c0-0.56-0.456-1.017-1.016-1.017c-0.491,0-0.901,0.35-0.996,0.813h-3.573v-4.292h5.501
			c0.094,0.463,0.505,0.813,0.996,0.813c0.56,0,1.016-0.456,1.016-1.017C147.762,26.718,147.306,26.262,146.745,26.262z
			 M144.818,31.367c0.336,0,0.61,0.274,0.61,0.61s-0.274,0.61-0.61,0.61c-0.336,0-0.61-0.274-0.61-0.61
			S144.481,31.367,144.818,31.367z M139.435,24.877c0-0.336,0.274-0.61,0.61-0.61c0.336,0,0.61,0.274,0.61,0.61
			c0,0.336-0.274,0.61-0.61,0.61C139.709,25.486,139.435,25.213,139.435,24.877z M146.745,27.889c-0.336,0-0.61-0.274-0.61-0.61
			c0-0.336,0.274-0.61,0.61-0.61c0.336,0,0.61,0.274,0.61,0.61C147.355,27.615,147.082,27.889,146.745,27.889z"/>
		<path fill="#EFD154" d="M172.809,40.102c0.561,0,1.017-0.456,1.017-1.017c0-0.56-0.456-1.017-1.017-1.017
			c-0.491,0-0.901,0.35-0.996,0.813h-3.587v-5.125h-3.094v-1.378c0.463-0.094,0.813-0.505,0.813-0.996
			c0-0.561-0.456-1.017-1.017-1.017s-1.017,0.456-1.017,1.017c0,0.491,0.35,0.901,0.813,0.996v1.785h3.094v4.719h-5.747v7.669h0.407
			v-7.262h9.334C171.908,39.752,172.318,40.102,172.809,40.102z M172.809,38.475c0.336,0,0.61,0.274,0.61,0.61
			s-0.274,0.61-0.61,0.61c-0.336,0-0.61-0.274-0.61-0.61S172.473,38.475,172.809,38.475z M164.319,31.382
			c0-0.336,0.274-0.61,0.61-0.61c0.336,0,0.61,0.274,0.61,0.61c0,0.336-0.274,0.61-0.61,0.61
			C164.592,31.992,164.319,31.718,164.319,31.382z"/>
		<path fill="#EFD154" d="M49.144,24.068c0.464-0.094,0.814-0.505,0.814-0.996c0-0.56-0.456-1.017-1.016-1.017
			c-0.561,0-1.017,0.456-1.017,1.017c0,0.491,0.35,0.901,0.813,0.996v2.55h3.581v3.93h-3.174h-0.203h-3.592
			c-0.094-0.463-0.505-0.813-0.996-0.813c-0.56,0-1.016,0.456-1.016,1.017c0,0.56,0.456,1.017,1.016,1.017
			c0.491,0,0.901-0.35,0.996-0.813h3.389v4.811h0.407v-4.811h3.581v-4.744h-3.581V24.068z M44.353,31.362
			c-0.336,0-0.61-0.274-0.61-0.61c0-0.336,0.274-0.61,0.61-0.61c0.336,0,0.61,0.274,0.61,0.61
			C44.963,31.088,44.689,31.362,44.353,31.362z M48.331,23.072c0-0.336,0.274-0.61,0.61-0.61c0.336,0,0.61,0.274,0.61,0.61
			c0,0.336-0.274,0.61-0.61,0.61C48.605,23.681,48.331,23.408,48.331,23.072z"/>
		<path fill="#EFD154" d="M97.347,29.623c0.464-0.094,0.814-0.505,0.814-0.996c0-0.56-0.456-1.017-1.016-1.017
			c-0.561,0-1.017,0.456-1.017,1.017c0,0.491,0.35,0.901,0.813,0.996v2.06h2.11v1.234h-1.704h-0.203h-3.592
			c-0.094-0.463-0.505-0.813-0.996-0.813c-0.56,0-1.016,0.456-1.016,1.017c0,0.56,0.456,1.017,1.016,1.017
			c0.491,0,0.902-0.35,0.996-0.813h3.389v3.586h0.407v-3.586h2.11v-2.048h-2.11V29.623z M92.555,33.731
			c-0.336,0-0.61-0.274-0.61-0.61s0.274-0.61,0.61-0.61c0.336,0,0.61,0.274,0.61,0.61S92.892,33.731,92.555,33.731z M96.534,28.627
			c0-0.336,0.274-0.61,0.61-0.61c0.336,0,0.61,0.274,0.61,0.61s-0.274,0.61-0.61,0.61C96.808,29.237,96.534,28.963,96.534,28.627z"
			/>
		<path fill="#EFD154" d="M120.478,31.042c-0.491,0-0.902,0.35-0.996,0.813h-5.501l-0.001-1.203
			c0.464-0.094,0.814-0.505,0.814-0.996c0-0.561-0.456-1.017-1.017-1.017c-0.56,0-1.017,0.456-1.017,1.017
			c0,0.491,0.349,0.901,0.812,0.996l0.001,1.406v4.495l-0.001,10.365h0.407l0.001-9.958h3.573c0.094,0.463,0.505,0.813,0.996,0.813
			c0.56,0,1.016-0.456,1.016-1.017c0-0.56-0.456-1.017-1.016-1.017c-0.491,0-0.901,0.35-0.996,0.813h-3.573v-4.292h5.501
			c0.094,0.463,0.505,0.813,0.996,0.813c0.56,0,1.016-0.456,1.016-1.017C121.494,31.498,121.039,31.042,120.478,31.042z
			 M118.55,36.147c0.336,0,0.61,0.274,0.61,0.61c0,0.336-0.274,0.61-0.61,0.61s-0.61-0.274-0.61-0.61
			C117.94,36.42,118.214,36.147,118.55,36.147z M113.168,29.656c0-0.336,0.274-0.61,0.61-0.61c0.336,0,0.61,0.274,0.61,0.61
			c0,0.336-0.274,0.61-0.61,0.61C113.441,30.266,113.168,29.992,113.168,29.656z M120.478,32.668c-0.336,0-0.61-0.274-0.61-0.61
			c0-0.336,0.274-0.61,0.61-0.61s0.61,0.274,0.61,0.61C121.088,32.394,120.814,32.668,120.478,32.668z"/>
		<path fill="#EFD154" d="M65.651,42.459L65.65,41.22l0.001-2.037h-0.407l-0.001,1.87l0,0v0v0l0,0l0,0.203h0v0h0l0.001,1.203
			c-0.464,0.094-0.814,0.505-0.814,0.996c0,0.561,0.456,1.017,1.017,1.017s1.017-0.456,1.017-1.017
			C66.463,42.964,66.114,42.554,65.651,42.459z M65.447,44.065c-0.336,0-0.61-0.274-0.61-0.61c0-0.336,0.274-0.61,0.61-0.61
			c0.336,0,0.61,0.274,0.61,0.61C66.057,43.791,65.783,44.065,65.447,44.065z"/>
		<path fill="#EFD154" d="M65.244,41.053V40.85h-3.05c-0.094-0.463-0.505-0.813-0.996-0.813c-0.56,0-1.016,0.456-1.016,1.017
			c0,0.56,0.456,1.017,1.016,1.017c0.491,0,0.902-0.35,0.996-0.813h3.05V41.053L65.244,41.053z M61.197,41.663
			c-0.336,0-0.61-0.274-0.61-0.61c0-0.336,0.274-0.61,0.61-0.61c0.336,0,0.61,0.274,0.61,0.61
			C61.807,41.389,61.534,41.663,61.197,41.663z"/>
		<path fill="#EFD154" d="M198.904,46.117c-0.491,0-0.902,0.35-0.996,0.814l-3.409-0.001V41.43c0.463-0.094,0.813-0.505,0.813-0.996
			c0-0.56-0.456-1.016-1.017-1.016s-1.017,0.456-1.017,1.016c0,0.491,0.35,0.901,0.813,0.996v5.501h-4.292v-3.573
			c0.463-0.094,0.813-0.505,0.813-0.996c0-0.56-0.456-1.016-1.017-1.016c-0.56,0-1.017,0.456-1.017,1.016
			c0,0.491,0.35,0.901,0.813,0.996v3.573l-19.517,0.001v0.407l19.924-0.001h4.495l3.612,0.001c0.095,0.463,0.505,0.812,0.996,0.812
			c0.561,0,1.017-0.456,1.017-1.017C199.92,46.573,199.464,46.117,198.904,46.117z M188.987,42.361c0-0.336,0.274-0.61,0.61-0.61
			c0.336,0,0.61,0.274,0.61,0.61c0,0.336-0.274,0.61-0.61,0.61C189.261,42.971,188.987,42.698,188.987,42.361z M193.686,40.434
			c0-0.336,0.274-0.61,0.61-0.61s0.61,0.274,0.61,0.61c0,0.336-0.273,0.61-0.61,0.61S193.686,40.77,193.686,40.434z M198.904,47.744
			c-0.336,0-0.61-0.274-0.61-0.61s0.274-0.61,0.61-0.61s0.61,0.274,0.61,0.61S199.24,47.744,198.904,47.744z"/>
		<path fill="#EFD154" d="M139.83,20.547c1.268,0,2.296-1.028,2.296-2.296c0-0.131-0.012-0.259-0.033-0.384
			c0.011,0,0.022,0.001,0.033,0.001c0.729,0,1.321-0.591,1.321-1.321c0-0.729-0.591-1.321-1.321-1.321
			c-0.258,0-0.499,0.074-0.703,0.203c-0.132-0.59-0.659-1.032-1.289-1.032c-0.535,0-0.996,0.319-1.203,0.776
			c-0.54-1.309-1.828-2.23-3.332-2.23c-0.572,0-1.112,0.134-1.592,0.371c-0.815-1.153-2.157-1.907-3.676-1.907
			c-0.906,0-1.749,0.269-2.456,0.73c-0.557-0.456-1.268-0.73-2.044-0.73c-1.782,0-3.227,1.445-3.227,3.227
			c0,0.18,0.015,0.357,0.044,0.529c-0.458,0.054-0.872,0.249-1.199,0.54c-0.31-0.341-0.758-0.556-1.256-0.556
			c-0.937,0-1.697,0.76-1.697,1.697c0,0.937,0.76,1.697,1.697,1.697c0.02,0,0.04-0.001,0.059-0.001
			c-0.038,0.139-0.059,0.285-0.059,0.436c0,0.904,0.733,1.637,1.637,1.637c0.305,0,0.59-0.084,0.834-0.229
			c0,0.008-0.001,0.015-0.001,0.023c0,1.749,1.417,3.166,3.166,3.166c1.114,0,2.092-0.575,2.656-1.444
			c0.374,1.592,1.802,2.778,3.507,2.778c1.545,0,2.863-0.973,3.375-2.339c0.454,0.343,1.019,0.547,1.632,0.547
			c1.449,0,2.632-1.139,2.704-2.57C139.747,20.546,139.788,20.547,139.83,20.547z"/>
		<path fill="#EFD154" d="M24.147,20.035c0.505,0,0.965-0.193,1.31-0.51c-0.001,0.026-0.002,0.051-0.002,0.077
			c0,1.531,1.241,2.773,2.773,2.773c0.996,0,1.869-0.526,2.358-1.314c0.684,1.369,2.098,2.309,3.733,2.309
			c2.303,0,4.17-1.867,4.17-4.17c0-0.287-0.029-0.567-0.084-0.837c0.179,0.053,0.369,0.082,0.566,0.082
			c1.094,0,1.98-0.887,1.98-1.98c0-1.094-0.887-1.98-1.98-1.98c-0.233,0-0.456,0.041-0.664,0.114c0.004-0.06,0.008-0.12,0.008-0.182
			c0-1.333-1.08-2.413-2.413-2.413c-0.729,0-1.381,0.323-1.824,0.834c-0.643-1.022-1.78-1.702-3.077-1.702
			c-1.57,0-2.907,0.995-3.415,2.389c-0.284-0.11-0.592-0.171-0.914-0.171c-1.394,0-2.525,1.13-2.525,2.525
			c0,0.094,0.006,0.187,0.016,0.279c-0.005,0-0.01,0-0.016,0c-1.071,0-1.939,0.868-1.939,1.939
			C22.208,19.167,23.076,20.035,24.147,20.035z"/>
		<path fill="#EFD154" d="M19.217,37.356l0.407,0l-0.001-4.485H16.68v-6.007l3.828-3.828c0.171,0.131,0.383,0.213,0.615,0.213
			c0.56,0,1.016-0.456,1.016-1.017s-0.456-1.016-1.016-1.016s-1.017,0.456-1.017,1.016c0,0.181,0.051,0.348,0.135,0.496
			l-3.968,3.967v6.582h2.944L19.217,37.356z M21.122,21.622c0.336,0,0.61,0.274,0.61,0.61c0,0.336-0.274,0.61-0.61,0.61
			c-0.336,0-0.61-0.274-0.61-0.61C20.513,21.895,20.786,21.622,21.122,21.622z"/>
	</g>
</g>
</svg>
