<?xml version="1.0" encoding="utf-8"?>
<!-- Generator: Adobe Illustrator 14.0.0, SVG Export Plug-In . SVG Version: 6.00 Build 43363)  -->
<!DOCTYPE svg PUBLIC "-//W3C//DTD SVG 1.1//EN" "http://www.w3.org/Graphics/SVG/1.1/DTD/svg11.dtd">
<svg version="1.1" id="Layer_1" xmlns="http://www.w3.org/2000/svg" xmlns:xlink="http://www.w3.org/1999/xlink" x="0px" y="0px"
	 width="589.516px" height="166.993px" viewBox="0 0 589.516 166.993" enable-background="new 0 0 589.516 166.993"
	 xml:space="preserve">
<g>
	<g>
		<path d="M260.5,139.707c-9.369,9.687-24.294,13.339-36.996,8.257c-8.098-3.174-15.402-11.431-18.101-19.848l12.067-8.257
			c0.953,1.59,1.746,3.813,2.382,4.925c2.54,4.443,7.621,8.414,13.336,9.683c6.034,1.272,13.497-0.793,17.149-6.826
			c3.493-5.716,5.081-14.766-0.318-20.481c-6.669-6.987-16.832-10.004-25.882-14.926c-6.35-3.335-13.813-8.733-15.877-16.038
			c-2.223-7.938-1.111-16.67,3.969-23.022c7.463-9.368,18.418-13.018,29.692-10.319c7.621,1.905,15.718,8.096,18.894,14.766
			c-3.811,2.698-8.573,5.557-12.542,8.414c-4.128-6.349-9.845-9.525-16.513-7.939c-3.811,0.793-6.986,4.607-7.623,8.1
			c-0.793,4.604,1.43,9.208,6.034,11.591c13.179,6.827,30.804,10.638,36.837,27.151C271.296,116.685,269.073,130.817,260.5,139.707z
			"/>
		<path d="M340.211,135.739c-10.319,12.861-26.674,16.989-42.075,12.385c-11.274-3.494-21.276-14.45-23.5-25.881
			c-3.017-15.563,2.064-30.961,15.72-39.696c10.478-6.666,25.721-8.256,37.312-2.856c6.669,3.016,13.338,9.843,16.83,16.353
			C350.533,107.792,348.787,125.26,340.211,135.739z M330.049,101.602c-4.286-7.303-11.748-11.116-19.846-11.273
			c-6.828-0.158-12.704,3.335-16.99,9.05c-5.24,6.988-6.352,17.943-1.43,25.563c5.082,7.781,13.497,12.225,22.865,10.48
			c6.51-1.111,12.861-5.876,16.036-11.749C334.02,117.161,333.862,107.792,330.049,101.602z"/>
		<path d="M364.357,145.108c-5.24-3.813-8.415-11.274-8.415-18.579V44.123l0.794-0.633h13.179l0.635,0.476
			c0,0-0.159,81.931-0.159,82.246c0.477,2.859,3.335,8.893,8.257,9.847c6.67,1.108,11.591-1.747,15.879-5.719
			c0,0,0.635,0.161,0.635,0.637v15.401C384.839,151.935,372.772,151.142,364.357,145.108z"/>
		<path d="M449.148,148.282c0,0-0.318,0.157-0.478-0.476c0-0.794,0-2.065,0-3.335c-9.527,5.716-23.182,7.145-33.819,3.017
			c-9.21-3.652-18.101-13.178-18.101-23.183c0-14.766,0.158-29.213,0-46.363c4.287,0,14.448,0,14.448,0l0.478,1.111
			c0,14.132,0.157,29.85,0,43.665c1.428,6.67,7.62,11.592,14.606,12.86c8.416,1.43,16.514-2.224,22.229-7.146
			c0-16.67-0.16-48.903-0.16-49.854c0-0.636,0.796-0.636,0.796-0.636h13.813c0,0,0.634,0.318,0.634,0.793v69.07
			c-0.157,0.633-0.634,0.476-0.634,0.476H449.148z"/>
		<path d="M588.88,148.282h-13.972l-0.318-0.794v-41.916c-0.635-6.036-5.874-12.228-11.749-13.497
			c-8.257-1.747-16.354,0.794-22.706,5.556c0,6.829,0,50.651,0,50.651s-9.368-0.158-14.449,0l-0.476-0.636
			c0-1.27,0.16-38.742,0.16-42.235c0.158-5.239-3.495-10.161-8.416-12.385c-9.527-4.286-19.847-0.157-27.31,5.24
			c0.158,17.307,0,49.54,0,49.54l-0.318,0.476c-4.604-0.158-9.526,0.318-14.606,0c-0.159-24.294,0-67.48,0-69.386l0.793-0.954
			h13.497c0.635,0,0.635,0.636,0.635,0.636s0.158,3.017,0,3.652c2.223-1.112,4.446-2.701,6.668-3.335
			c10.161-3.176,23.499-3.495,32.392,2.223c1.746,1.112,3.492,2.539,4.604,3.65c11.115-10.794,30.804-10.637,43.347-3.174
			c11.75,6.984,12.861,18.895,12.861,31.598v34.453L588.88,148.282z"/>
	</g>
	<path fill="#4D4D4D" d="M35.205,106.658l-14.923,14.924c6.524-0.296,13.146,2.018,18.127,6.995
		c4.985,4.987,7.301,11.609,7.004,18.132l14.916-14.915c-6.523,0.296-13.142-2.021-18.124-7.004
		C37.223,119.803,34.908,113.185,35.205,106.658z"/>
	<path fill="#4D4D4D" d="M60.329,78.396L45.406,63.473c0.295,6.525-2.018,13.147-6.996,18.128c-4.987,4.984-11.608,7.3-18.132,7.005
		l14.915,14.914c-0.295-6.523,2.021-13.142,7.004-18.123C47.185,80.414,53.803,78.101,60.329,78.396z"/>
	<path fill="#4D4D4D" d="M103.516,35.208L88.593,20.284c0.295,6.526-2.018,13.147-6.996,18.129
		c-4.987,4.983-11.608,7.299-18.132,7.004l14.916,14.915c-0.296-6.523,2.02-13.142,7.004-18.123
		C90.372,37.225,96.99,34.912,103.516,35.208z"/>
	<path fill="#4D4D4D" d="M118.516,21.351c0,8.878-7.196,16.071-16.07,16.071c-8.875,0-16.071-7.192-16.071-16.071
		c0-8.873,7.196-16.069,16.071-16.069C111.32,5.282,118.516,12.478,118.516,21.351z"/>
	<circle fill="#4D4D4D" cx="61.899" cy="61.9" r="18.712"/>
	<circle fill="#4D4D4D" cx="22.235" cy="105.091" r="17.724"/>
	<circle fill="#4D4D4D" cx="59.497" cy="145.882" r="16.31"/>
	<g>
		<linearGradient id="SVGID_1_" gradientUnits="userSpaceOnUse" x1="61.8989" y1="22.1245" x2="61.8989" y2="152.1382">
			<stop  offset="0" style="stop-color:#F7D91E"/>
			<stop  offset="1" style="stop-color:#FCEE21"/>
		</linearGradient>
		<path fill="url(#SVGID_1_)" d="M80.611,18.711c0,10.337-8.378,18.711-18.711,18.711c-10.335,0-18.712-8.374-18.712-18.711
			C43.187,8.377,51.564,0,61.899,0C72.233,0,80.611,8.377,80.611,18.711z"/>
		<linearGradient id="SVGID_2_" gradientUnits="userSpaceOnUse" x1="18.7119" y1="22.124" x2="18.7119" y2="152.1411">
			<stop  offset="0" style="stop-color:#F7D91E"/>
			<stop  offset="1" style="stop-color:#FCEE21"/>
		</linearGradient>
		<circle fill="url(#SVGID_2_)" cx="18.712" cy="61.9" r="18.712"/>
		<linearGradient id="SVGID_3_" gradientUnits="userSpaceOnUse" x1="105.0859" y1="22.124" x2="105.0859" y2="152.1411">
			<stop  offset="0" style="stop-color:#F7D91E"/>
			<stop  offset="1" style="stop-color:#FCEE21"/>
		</linearGradient>
		<circle fill="url(#SVGID_3_)" cx="105.086" cy="61.9" r="18.712"/>
		<linearGradient id="SVGID_4_" gradientUnits="userSpaceOnUse" x1="148.2729" y1="22.124" x2="148.2729" y2="152.1411">
			<stop  offset="0" style="stop-color:#F7D91E"/>
			<stop  offset="1" style="stop-color:#FCEE21"/>
		</linearGradient>
		<circle fill="url(#SVGID_4_)" cx="148.273" cy="61.9" r="18.712"/>
		<linearGradient id="SVGID_5_" gradientUnits="userSpaceOnUse" x1="148.2729" y1="22.127" x2="148.2729" y2="152.1406">
			<stop  offset="0" style="stop-color:#F7D91E"/>
			<stop  offset="1" style="stop-color:#FCEE21"/>
		</linearGradient>
		<circle fill="url(#SVGID_5_)" cx="148.273" cy="148.282" r="18.712"/>
		<linearGradient id="SVGID_6_" gradientUnits="userSpaceOnUse" x1="61.8989" y1="22.124" x2="61.8989" y2="152.1411">
			<stop  offset="0" style="stop-color:#F7D91E"/>
			<stop  offset="1" style="stop-color:#FCEE21"/>
		</linearGradient>
		<circle fill="url(#SVGID_6_)" cx="61.899" cy="105.091" r="18.712"/>
		<linearGradient id="SVGID_7_" gradientUnits="userSpaceOnUse" x1="105.0859" y1="22.124" x2="105.0859" y2="152.1411">
			<stop  offset="0" style="stop-color:#F7D91E"/>
			<stop  offset="1" style="stop-color:#FCEE21"/>
		</linearGradient>
		<circle fill="url(#SVGID_7_)" cx="105.086" cy="105.091" r="18.712"/>
		<linearGradient id="SVGID_8_" gradientUnits="userSpaceOnUse" x1="105.0859" y1="22.127" x2="105.0859" y2="152.1406">
			<stop  offset="0" style="stop-color:#F7D91E"/>
			<stop  offset="1" style="stop-color:#FCEE21"/>
		</linearGradient>
		<circle fill="url(#SVGID_8_)" cx="105.086" cy="148.282" r="18.712"/>
	</g>
</g>
</svg>
